<?xml version="1.0" encoding="utf-8"?>
<!-- Generator: Adobe Illustrator 19.0.0, SVG Export Plug-In . SVG Version: 6.00 Build 0)  -->
<svg version="1.1" id="Layer_1" xmlns="http://www.w3.org/2000/svg" xmlns:xlink="http://www.w3.org/1999/xlink" x="0px" y="0px"
	 viewBox="255.6 321.22 160 185.85" style="enable-background:new 255.6 321.22 160 185.85;" xml:space="preserve">
<style type="text/css">
	.st0{fill:#E3C5A2;}
	.st1{fill:#907671;}
	.st2{fill:#FFFFFF;}
	.st3{fill:#D1D0C6;}
	.st4{fill:#735751;}
</style>
<g>
	<path class="st0" d="M360.57,368.65c0.42-1.73,9.24,1.97,19.07-1.01c12.75-3.81,21.51-17.04,24.73-27.83
		c2.5-8.46,1.31-14.42,2.8-14.6c1.91-0.24,6.32,9.47,4.59,19.19c-0.72,3.93-0.3,4.05-4.29,13.94c-4.89,12.16-4.53,11.2-8.52,18.11
		c-3.22,5.54-8.1,12.33-12.57,12.04c-3.16-0.18-3.81-3.58-8.64-8.46C369.32,371.57,360.15,370.32,360.57,368.65z"/>
	<path class="st0" d="M311.29,368.36c-0.3-1.73-9.35,1.19-18.89-2.56c-12.39-4.89-20.02-18.77-22.28-29.79
		c-1.79-8.64-0.06-14.48-1.55-14.78c-1.91-0.36-7.09,8.88-6.2,18.71c0.36,3.99-0.06,4.11,3.1,14.24
		c3.81,12.51,3.58,11.56,7.03,18.77c2.74,5.78,7.03,12.93,11.56,13.05c3.16,0.06,4.11-3.28,9.3-7.69
		C302.23,370.56,311.53,370.08,311.29,368.36z"/>
	<path class="st1" d="M334.23,364.19c-1.85,0.06-3.63,0.18-5.42,0.36c-15.79,1.6-29.22,7.37-38.07,15.97
		c-1.68-5.13-7.36-8.5-10.25-10.19c-8.28-4.89-20.97-6.79-24.13-1.79c-2.44,3.87,1.67,10.43,3.58,13.41
		c0.94,1.47,10.3,16,21.03,13.5c-6.83,17.91-2.23,40.87,7.98,63.84c4.29,9.65,5.72,13.17,17.28,28.6c3.1,4.11,5.9,7.39,8.52,9.89
		c21.15-5.3,37.3-23.24,38.37-44.99C354.67,423.35,351.75,389.39,334.23,364.19z"/>
	<path class="st2" d="M328.69,418.82c1.31-3.46,1.97-7.75,1.55-12.04c-4.41-5.72-11.32-9.41-19.13-9.41
		c-13.35,0-24.13,10.78-24.13,24.13c0,8.64,4.53,16.21,11.32,20.44C312,439.86,324.4,432.17,328.69,418.82z"/>
	<path class="st3" d="M330.24,406.79c0.42,4.29-0.18,8.58-1.55,12.04c-4.29,13.35-16.68,21.03-30.39,23.12
		c3.69,2.32,8.1,3.69,12.81,3.69c13.35,0,24.13-10.78,24.13-24.13C335.24,415.96,333.34,410.84,330.24,406.79z"/>
	<path class="st4" d="M414.85,367.94c-3.16-5-15.85-3.1-24.13,1.79c-3.06,1.79-9.25,5.46-10.5,11.12
		c-8.86-8.78-22.44-14.62-38.36-16.24c-2.15-0.24-4.29-0.36-6.55-0.42c-0.36,0-0.72,0.06-1.13,0.06
		c17.52,25.2,20.44,59.11,18.89,88.6c-1.07,21.75-17.22,39.68-38.43,45.05c9,8.88,15.07,9.18,20.56,9.18h0.12
		c7.03,0,15.07-0.42,29.08-19.07c11.56-15.43,12.99-18.95,17.28-28.6c10.43-23.4,15.02-46.75,7.7-64.79
		c0.16,0.05,0.31,0.1,0.47,0.14c10.9,2.98,20.5-11.92,21.45-13.41C413.18,378.37,417.29,371.81,414.85,367.94z"/>
	<ellipse cx="320.35" cy="431.34" rx="5.36" ry="4.23"/>
	<circle class="st2" cx="360.57" cy="421.51" r="24.13"/>
	<ellipse cx="348.35" cy="431.34" rx="5.36" ry="4.23"/>
	<path class="st3" d="M379.69,406.79c0.42,4.29-0.18,8.58-1.55,12.04c-4.29,13.35-16.68,21.03-30.39,23.12
		c3.69,2.32,8.1,3.69,12.81,3.69c13.35,0,24.13-10.78,24.13-24.13C384.7,415.96,382.79,410.84,379.69,406.79z"/>
</g>
</svg>
